<svg width="502" height="53" viewBox="0 0 502 53" fill="none" xmlns="http://www.w3.org/2000/svg">
<rect width="502" height="53" rx="5" fill="#F2F2F2"/>
<path opacity="0.8" d="M29.2 20.976V32H27.68V22.272H23.12V32H21.6V20.976H29.2ZM35.4849 23.376C36.6689 23.376 37.5862 23.7707 38.2369 24.56C38.8982 25.3493 39.2289 26.4213 39.2289 27.776C39.2289 28.6507 39.0795 29.424 38.7809 30.096C38.4822 30.7573 38.0502 31.2747 37.4849 31.648C36.9195 32.0107 36.2475 32.192 35.4689 32.192C34.2849 32.192 33.3622 31.7973 32.7009 31.008C32.0395 30.2187 31.7089 29.1467 31.7089 27.792C31.7089 26.9173 31.8582 26.1493 32.1569 25.488C32.4555 24.816 32.8875 24.2987 33.4529 23.936C34.0182 23.5627 34.6955 23.376 35.4849 23.376ZM35.4849 24.56C34.0235 24.56 33.2929 25.6373 33.2929 27.792C33.2929 29.936 34.0182 31.008 35.4689 31.008C36.9195 31.008 37.6449 29.9307 37.6449 27.776C37.6449 25.632 36.9249 24.56 35.4849 24.56ZM48.2206 32H46.7646V28.192C46.7646 27.552 46.786 26.944 46.8286 26.368C46.8713 25.792 46.9086 25.4133 46.9406 25.232L43.4046 32H41.6606V23.568H43.1166V27.376C43.1166 27.9413 43.0953 28.528 43.0526 29.136C43.01 29.7333 42.978 30.1173 42.9566 30.288L46.4446 23.568H48.2206V32ZM54.3264 23.376C54.8277 23.376 55.2864 23.4507 55.7024 23.6C56.1184 23.7387 56.5184 23.968 56.9024 24.288L56.1984 25.216C55.8997 25.0027 55.6064 24.848 55.3184 24.752C55.041 24.6453 54.7317 24.592 54.3904 24.592C53.7077 24.592 53.1744 24.864 52.7904 25.408C52.417 25.952 52.2304 26.7573 52.2304 27.824C52.2304 28.8907 52.417 29.68 52.7904 30.192C53.1637 30.6933 53.697 30.944 54.3904 30.944C54.721 30.944 55.025 30.896 55.3024 30.8C55.5797 30.6933 55.889 30.528 56.2304 30.304L56.9024 31.264C56.1344 31.8827 55.2757 32.192 54.3264 32.192C53.185 32.192 52.2837 31.808 51.6224 31.04C50.9717 30.272 50.6464 29.2107 50.6464 27.856C50.6464 26.96 50.7957 26.176 51.0944 25.504C51.393 24.832 51.8144 24.3093 52.3584 23.936C52.913 23.5627 53.569 23.376 54.3264 23.376ZM65.215 23.568L62.655 27.472L65.519 32H63.775L61.439 28.112H60.367V32H58.895V23.568H60.367V26.96H61.471L63.599 23.568H65.215Z" fill="#1F1D14"/>
<path opacity="0.7" d="M480.474 32.0266L478.001 29.5733C478.961 28.3762 479.426 26.8568 479.3 25.3275C479.174 23.7981 478.467 22.3751 477.325 21.351C476.182 20.3269 474.69 19.7796 473.156 19.8216C471.622 19.8636 470.163 20.4916 469.078 21.5767C467.993 22.6618 467.365 24.1213 467.323 25.6552C467.281 27.1891 467.828 28.6808 468.852 29.8236C469.876 30.9664 471.299 31.6733 472.828 31.7991C474.358 31.9249 475.877 31.46 477.074 30.4999L479.528 32.9533C479.59 33.0158 479.663 33.0654 479.745 33.0992C479.826 33.133 479.913 33.1505 480.001 33.1505C480.089 33.1505 480.176 33.133 480.257 33.0992C480.339 33.0654 480.412 33.0158 480.474 32.9533C480.594 32.829 480.662 32.6628 480.662 32.4899C480.662 32.317 480.594 32.1509 480.474 32.0266ZM473.334 30.4999C472.411 30.4999 471.509 30.2262 470.742 29.7135C469.974 29.2007 469.376 28.4718 469.023 27.6191C468.67 26.7664 468.577 25.8281 468.757 24.9228C468.937 24.0176 469.382 23.1861 470.034 22.5334C470.687 21.8808 471.519 21.4363 472.424 21.2563C473.329 21.0762 474.267 21.1686 475.12 21.5218C475.973 21.875 476.702 22.4732 477.214 23.2406C477.727 24.008 478.001 24.9103 478.001 25.8333C478.001 27.0709 477.509 28.2579 476.634 29.1331C475.759 30.0083 474.572 30.4999 473.334 30.4999Z" fill="black"/>
</svg>
