<svg width="146" height="19" viewBox="0 0 146 19" fill="none" xmlns="http://www.w3.org/2000/svg">
<path d="M12.9591 11.6667C12.8124 11.6667 12.6591 11.6201 12.5124 11.5867C12.2154 11.5213 11.9235 11.4344 11.6391 11.3267C11.3298 11.2142 10.9899 11.2201 10.6846 11.3431C10.3794 11.4662 10.1305 11.6978 9.98576 11.9934L9.83909 12.2934C9.18976 11.9322 8.59308 11.4836 8.06576 10.9601C7.54227 10.4328 7.09364 9.83607 6.73242 9.18674L7.01242 9.00007C7.308 8.85535 7.53961 8.60643 7.66269 8.3012C7.78576 7.99598 7.7916 7.65602 7.67909 7.34674C7.57324 7.06169 7.48638 6.76994 7.41909 6.47341C7.38576 6.32674 7.35909 6.17341 7.33909 6.02008C7.25813 5.55049 7.01217 5.12524 6.6455 4.8209C6.27884 4.51657 5.81555 4.35315 5.33909 4.36007H3.33909C3.05178 4.35738 2.76726 4.41662 2.5049 4.53376C2.24254 4.65091 2.0085 4.82321 1.81871 5.03893C1.62892 5.25465 1.48785 5.50874 1.40508 5.78388C1.32232 6.05903 1.29981 6.34878 1.33909 6.63341C1.69425 9.42633 2.96978 12.0213 4.96419 14.0085C6.95861 15.9957 9.55823 17.2617 12.3524 17.6067H12.6058C13.0974 17.6075 13.572 17.4271 13.9391 17.1001C14.15 16.9114 14.3185 16.6802 14.4334 16.4216C14.5483 16.163 14.6071 15.883 14.6058 15.6001V13.6001C14.5976 13.137 14.429 12.6911 14.1287 12.3385C13.8283 11.9859 13.415 11.7485 12.9591 11.6667ZM13.2924 15.6667C13.2923 15.7614 13.272 15.8549 13.2329 15.9412C13.1939 16.0274 13.1369 16.1043 13.0658 16.1667C12.9913 16.2311 12.9042 16.2791 12.81 16.3078C12.7159 16.3365 12.6168 16.3452 12.5191 16.3334C10.0224 16.0133 7.70325 14.8711 5.92757 13.0869C4.15189 11.3028 3.0207 8.9783 2.71242 6.48007C2.70181 6.38242 2.71111 6.28363 2.73976 6.18967C2.7684 6.09571 2.8158 6.00853 2.87909 5.93341C2.94156 5.8623 3.01846 5.8053 3.10468 5.76622C3.19089 5.72714 3.28443 5.70686 3.37909 5.70674H5.37909C5.53412 5.70329 5.68551 5.75399 5.80719 5.85012C5.92887 5.94625 6.01323 6.08179 6.04576 6.23341C6.07242 6.41563 6.10576 6.59563 6.14576 6.77341C6.22277 7.12484 6.32526 7.47019 6.45242 7.80674L5.51909 8.24007C5.43929 8.27669 5.36751 8.32871 5.30786 8.39314C5.24822 8.45757 5.20189 8.53315 5.17154 8.61554C5.14119 8.69793 5.1274 8.7855 5.13099 8.87322C5.13457 8.96095 5.15545 9.0471 5.19242 9.12674C6.15189 11.1819 7.80392 12.8339 9.85909 13.7934C10.0214 13.8601 10.2035 13.8601 10.3658 13.7934C10.4489 13.7637 10.5253 13.7177 10.5905 13.6582C10.6558 13.5987 10.7085 13.5268 10.7458 13.4467L11.1591 12.5134C11.5037 12.6367 11.8555 12.7391 12.2124 12.8201C12.3902 12.8601 12.5702 12.8934 12.7524 12.9201C12.904 12.9526 13.0396 13.037 13.1357 13.1586C13.2318 13.2803 13.2825 13.4317 13.2791 13.5867L13.2924 15.6667Z" fill="white"/>
<path d="M24.492 8.772V10.572H26.244V11.484H24.492V13.272H23.484V11.484H21.744V10.572H23.484V8.772H24.492ZM29.9791 6.852C30.8271 6.852 31.4711 7.132 31.9111 7.692C32.3511 8.244 32.5711 9.004 32.5711 9.972C32.5711 11.068 32.4231 11.952 32.1271 12.624C31.8311 13.288 31.3791 13.82 30.7711 14.22C30.1631 14.612 29.3391 14.96 28.2991 15.264L28.0471 14.436C29.1191 14.132 29.9391 13.72 30.5071 13.2C31.0831 12.68 31.3911 11.988 31.4311 11.124C31.2471 11.412 30.9991 11.644 30.6871 11.82C30.3751 11.996 30.0231 12.084 29.6311 12.084C29.2151 12.084 28.8391 11.98 28.5031 11.772C28.1671 11.556 27.8991 11.256 27.6991 10.872C27.5071 10.48 27.4111 10.024 27.4111 9.504C27.4111 8.96 27.5271 8.488 27.7591 8.088C27.9911 7.688 28.2991 7.384 28.6831 7.176C29.0751 6.96 29.5071 6.852 29.9791 6.852ZM29.8591 11.22C30.4911 11.22 31.0231 10.888 31.4551 10.224C31.4711 9.336 31.3591 8.7 31.1191 8.316C30.8871 7.924 30.5151 7.728 30.0031 7.728C29.5311 7.728 29.1671 7.884 28.9111 8.196C28.6551 8.508 28.5271 8.952 28.5271 9.528C28.5271 10.088 28.6471 10.512 28.8871 10.8C29.1271 11.08 29.4511 11.22 29.8591 11.22ZM36.2838 6.852C37.1318 6.852 37.7758 7.132 38.2158 7.692C38.6558 8.244 38.8758 9.004 38.8758 9.972C38.8758 11.068 38.7278 11.952 38.4318 12.624C38.1358 13.288 37.6838 13.82 37.0758 14.22C36.4678 14.612 35.6438 14.96 34.6038 15.264L34.3518 14.436C35.4238 14.132 36.2438 13.72 36.8118 13.2C37.3878 12.68 37.6958 11.988 37.7358 11.124C37.5518 11.412 37.3038 11.644 36.9918 11.82C36.6798 11.996 36.3278 12.084 35.9358 12.084C35.5198 12.084 35.1438 11.98 34.8078 11.772C34.4718 11.556 34.2038 11.256 34.0038 10.872C33.8118 10.48 33.7158 10.024 33.7158 9.504C33.7158 8.96 33.8318 8.488 34.0638 8.088C34.2958 7.688 34.6038 7.384 34.9878 7.176C35.3798 6.96 35.8118 6.852 36.2838 6.852ZM36.1638 11.22C36.7958 11.22 37.3278 10.888 37.7598 10.224C37.7758 9.336 37.6638 8.7 37.4238 8.316C37.1918 7.924 36.8198 7.728 36.3078 7.728C35.8358 7.728 35.4718 7.884 35.2158 8.196C34.9598 8.508 34.8318 8.952 34.8318 9.528C34.8318 10.088 34.9518 10.512 35.1918 10.8C35.4318 11.08 35.7558 11.22 36.1638 11.22ZM43.8605 10.692C44.9885 11.148 45.5525 11.868 45.5525 12.852C45.5525 13.292 45.4325 13.688 45.1925 14.04C44.9605 14.384 44.6325 14.656 44.2085 14.856C43.7845 15.048 43.3045 15.144 42.7685 15.144C42.2245 15.144 41.7445 15.048 41.3285 14.856C40.9125 14.664 40.5885 14.396 40.3565 14.052C40.1325 13.708 40.0205 13.316 40.0205 12.876C40.0205 12.38 40.1525 11.964 40.4165 11.628C40.6885 11.292 41.0845 11.012 41.6045 10.788C41.1805 10.572 40.8645 10.312 40.6565 10.008C40.4565 9.696 40.3565 9.332 40.3565 8.916C40.3565 8.484 40.4685 8.112 40.6925 7.8C40.9245 7.488 41.2245 7.252 41.5925 7.092C41.9685 6.932 42.3685 6.852 42.7925 6.852C43.2085 6.852 43.6005 6.928 43.9685 7.08C44.3445 7.232 44.6485 7.464 44.8805 7.776C45.1125 8.08 45.2285 8.448 45.2285 8.88C45.2285 9.28 45.1165 9.624 44.8925 9.912C44.6685 10.2 44.3245 10.46 43.8605 10.692ZM42.7925 7.68C42.3765 7.68 42.0445 7.788 41.7965 8.004C41.5565 8.22 41.4365 8.528 41.4365 8.928C41.4365 9.312 41.5525 9.604 41.7845 9.804C42.0245 10.004 42.4045 10.188 42.9245 10.356L43.1285 10.428C43.4885 10.22 43.7485 10 43.9085 9.768C44.0685 9.536 44.1485 9.252 44.1485 8.916C44.1485 8.54 44.0285 8.24 43.7885 8.016C43.5565 7.792 43.2245 7.68 42.7925 7.68ZM42.7805 14.268C43.2765 14.268 43.6685 14.14 43.9565 13.884C44.2525 13.628 44.4005 13.288 44.4005 12.864C44.4005 12.576 44.3445 12.336 44.2325 12.144C44.1205 11.944 43.9405 11.772 43.6925 11.628C43.4445 11.476 43.0965 11.324 42.6485 11.172L42.3485 11.064C41.9485 11.256 41.6525 11.5 41.4605 11.796C41.2685 12.084 41.1725 12.444 41.1725 12.876C41.1725 13.316 41.3165 13.66 41.6045 13.908C41.8925 14.148 42.2845 14.268 42.7805 14.268ZM52.6736 5.34C52.2576 5.956 51.9256 6.508 51.6776 6.996C51.4376 7.476 51.2456 8.024 51.1016 8.64C50.9656 9.256 50.8976 9.976 50.8976 10.8C50.8976 11.616 50.9656 12.332 51.1016 12.948C51.2456 13.564 51.4376 14.12 51.6776 14.616C51.9256 15.104 52.2576 15.652 52.6736 16.26L51.9776 16.74C51.4496 15.988 51.0416 15.372 50.7536 14.892C50.4736 14.404 50.2336 13.824 50.0336 13.152C49.8416 12.472 49.7456 11.688 49.7456 10.8C49.7456 9.912 49.8416 9.132 50.0336 8.46C50.2336 7.78 50.4736 7.2 50.7536 6.72C51.0416 6.232 51.4496 5.612 51.9776 4.86L52.6736 5.34ZM56.2643 6.852C57.1123 6.852 57.7563 7.132 58.1963 7.692C58.6363 8.244 58.8563 9.004 58.8563 9.972C58.8563 11.068 58.7083 11.952 58.4123 12.624C58.1163 13.288 57.6643 13.82 57.0563 14.22C56.4483 14.612 55.6243 14.96 54.5843 15.264L54.3323 14.436C55.4043 14.132 56.2243 13.72 56.7923 13.2C57.3683 12.68 57.6763 11.988 57.7163 11.124C57.5323 11.412 57.2843 11.644 56.9723 11.82C56.6603 11.996 56.3083 12.084 55.9163 12.084C55.5003 12.084 55.1243 11.98 54.7883 11.772C54.4523 11.556 54.1843 11.256 53.9843 10.872C53.7923 10.48 53.6963 10.024 53.6963 9.504C53.6963 8.96 53.8123 8.488 54.0443 8.088C54.2763 7.688 54.5843 7.384 54.9683 7.176C55.3603 6.96 55.7923 6.852 56.2643 6.852ZM56.1443 11.22C56.7763 11.22 57.3083 10.888 57.7403 10.224C57.7563 9.336 57.6443 8.7 57.4043 8.316C57.1723 7.924 56.8003 7.728 56.2883 7.728C55.8163 7.728 55.4523 7.884 55.1963 8.196C54.9403 8.508 54.8123 8.952 54.8123 9.528C54.8123 10.088 54.9323 10.512 55.1723 10.8C55.4123 11.08 55.7363 11.22 56.1443 11.22ZM62.8089 6.852C63.6969 6.852 64.3649 7.208 64.8129 7.92C65.2689 8.624 65.4969 9.648 65.4969 10.992C65.4969 12.336 65.2689 13.364 64.8129 14.076C64.3649 14.788 63.6969 15.144 62.8089 15.144C61.9209 15.144 61.2489 14.788 60.7929 14.076C60.3449 13.364 60.1209 12.336 60.1209 10.992C60.1209 9.648 60.3449 8.624 60.7929 7.92C61.2489 7.208 61.9209 6.852 62.8089 6.852ZM62.8089 7.728C62.2889 7.728 61.9009 7.984 61.6449 8.496C61.3969 9.008 61.2729 9.84 61.2729 10.992C61.2729 12.144 61.3969 12.98 61.6449 13.5C61.9009 14.012 62.2889 14.268 62.8089 14.268C63.3209 14.268 63.7049 14.012 63.9609 13.5C64.2169 12.98 64.3449 12.144 64.3449 10.992C64.3449 9.848 64.2169 9.02 63.9609 8.508C63.7049 7.988 63.3209 7.728 62.8089 7.728ZM67.3283 4.86C67.8563 5.612 68.2603 6.232 68.5403 6.72C68.8283 7.2 69.0683 7.78 69.2603 8.46C69.4603 9.132 69.5603 9.912 69.5603 10.8C69.5603 11.688 69.4603 12.472 69.2603 13.152C69.0683 13.824 68.8283 14.404 68.5403 14.892C68.2603 15.372 67.8563 15.988 67.3283 16.74L66.6323 16.26C67.0483 15.652 67.3763 15.104 67.6163 14.616C67.8643 14.12 68.0563 13.564 68.1923 12.948C68.3363 12.332 68.4083 11.616 68.4083 10.8C68.4083 9.976 68.3363 9.256 68.1923 8.64C68.0563 8.024 67.8643 7.476 67.6163 6.996C67.3763 6.508 67.0483 5.956 66.6323 5.34L67.3283 4.86ZM80.9973 5.448H76.8213V8.6C77.3653 8.32267 77.936 8.184 78.5333 8.184C79.4507 8.184 80.1867 8.488 80.7413 9.096C81.296 9.69333 81.5733 10.52 81.5733 11.576C81.5733 12.28 81.4187 12.9093 81.1093 13.464C80.8 14.008 80.3627 14.4347 79.7973 14.744C79.2427 15.0427 78.5973 15.192 77.8613 15.192C77.2107 15.192 76.6293 15.08 76.1173 14.856C75.6053 14.6213 75.1307 14.28 74.6933 13.832L75.5573 12.984C75.8987 13.3253 76.2507 13.5813 76.6133 13.752C76.976 13.912 77.3867 13.992 77.8453 13.992C78.528 13.992 79.0613 13.7787 79.4453 13.352C79.84 12.9253 80.0373 12.3227 80.0373 11.544C80.0373 10.7653 79.8613 10.2 79.5093 9.848C79.1573 9.496 78.6827 9.32 78.0853 9.32C77.808 9.32 77.552 9.352 77.3173 9.416C77.0827 9.46933 76.832 9.56 76.5653 9.688H75.4133V4.296H81.2053L80.9973 5.448ZM87.221 7.96C87.765 7.96 88.261 8.088 88.709 8.344C89.157 8.6 89.5143 8.984 89.781 9.496C90.0476 10.008 90.181 10.632 90.181 11.368C90.181 12.1253 90.0263 12.7973 89.717 13.384C89.4183 13.96 89.0076 14.408 88.485 14.728C87.973 15.0373 87.4023 15.192 86.773 15.192C85.525 15.192 84.613 14.7333 84.037 13.816C83.461 12.888 83.173 11.608 83.173 9.976C83.173 8.81333 83.333 7.79467 83.653 6.92C83.9836 6.03467 84.453 5.352 85.061 4.872C85.669 4.38133 86.389 4.136 87.221 4.136C88.0316 4.136 88.7676 4.35467 89.429 4.792L88.853 5.768C88.3516 5.45867 87.8023 5.304 87.205 5.304C86.437 5.304 85.829 5.672 85.381 6.408C84.933 7.144 84.6876 8.13067 84.645 9.368C85.3063 8.42933 86.165 7.96 87.221 7.96ZM86.773 14.024C87.3916 14.024 87.8663 13.7893 88.197 13.32C88.5276 12.8507 88.693 12.216 88.693 11.416C88.693 9.89067 88.117 9.128 86.965 9.128C86.4956 9.128 86.0636 9.26133 85.669 9.528C85.2743 9.784 84.9383 10.1413 84.661 10.6C84.693 11.7733 84.8743 12.6373 85.205 13.192C85.5463 13.7467 86.069 14.024 86.773 14.024ZM97.4661 5.448H93.2901V8.6C93.8341 8.32267 94.4048 8.184 95.0021 8.184C95.9194 8.184 96.6554 8.488 97.2101 9.096C97.7648 9.69333 98.0421 10.52 98.0421 11.576C98.0421 12.28 97.8874 12.9093 97.5781 13.464C97.2688 14.008 96.8314 14.4347 96.2661 14.744C95.7114 15.0427 95.0661 15.192 94.3301 15.192C93.6794 15.192 93.0981 15.08 92.5861 14.856C92.0741 14.6213 91.5994 14.28 91.1621 13.832L92.0261 12.984C92.3674 13.3253 92.7194 13.5813 93.0821 13.752C93.4448 13.912 93.8554 13.992 94.3141 13.992C94.9968 13.992 95.5301 13.7787 95.9141 13.352C96.3088 12.9253 96.5061 12.3227 96.5061 11.544C96.5061 10.7653 96.3301 10.2 95.9781 9.848C95.6261 9.496 95.1514 9.32 94.5541 9.32C94.2768 9.32 94.0208 9.352 93.7861 9.416C93.5514 9.46933 93.3008 9.56 93.0341 9.688H91.8821V4.296H97.6741L97.4661 5.448ZM99.7217 10.616V9.368H104.25V10.616H99.7217ZM111.055 9.256C112.559 9.864 113.311 10.824 113.311 12.136C113.311 12.7227 113.151 13.2507 112.831 13.72C112.522 14.1787 112.084 14.5413 111.519 14.808C110.954 15.064 110.314 15.192 109.599 15.192C108.874 15.192 108.234 15.064 107.679 14.808C107.124 14.552 106.692 14.1947 106.383 13.736C106.084 13.2773 105.935 12.7547 105.935 12.168C105.935 11.5067 106.111 10.952 106.463 10.504C106.826 10.056 107.354 9.68267 108.047 9.384C107.482 9.096 107.06 8.74933 106.783 8.344C106.516 7.928 106.383 7.44267 106.383 6.888C106.383 6.312 106.532 5.816 106.831 5.4C107.14 4.984 107.54 4.66933 108.031 4.456C108.532 4.24267 109.066 4.136 109.631 4.136C110.186 4.136 110.708 4.23733 111.199 4.44C111.7 4.64267 112.106 4.952 112.415 5.368C112.724 5.77333 112.879 6.264 112.879 6.84C112.879 7.37333 112.73 7.832 112.431 8.216C112.132 8.6 111.674 8.94667 111.055 9.256ZM109.631 5.24C109.076 5.24 108.634 5.384 108.303 5.672C107.983 5.96 107.823 6.37067 107.823 6.904C107.823 7.416 107.978 7.80533 108.287 8.072C108.607 8.33867 109.114 8.584 109.807 8.808L110.079 8.904C110.559 8.62667 110.906 8.33333 111.119 8.024C111.332 7.71467 111.439 7.336 111.439 6.888C111.439 6.38667 111.279 5.98667 110.959 5.688C110.65 5.38933 110.207 5.24 109.631 5.24ZM109.615 14.024C110.276 14.024 110.799 13.8533 111.183 13.512C111.578 13.1707 111.775 12.7173 111.775 12.152C111.775 11.768 111.7 11.448 111.551 11.192C111.402 10.9253 111.162 10.696 110.831 10.504C110.5 10.3013 110.036 10.0987 109.439 9.896L109.039 9.752C108.506 10.008 108.111 10.3333 107.855 10.728C107.599 11.112 107.471 11.592 107.471 12.168C107.471 12.7547 107.663 13.2133 108.047 13.544C108.431 13.864 108.954 14.024 109.615 14.024ZM120.747 5.448H116.571V8.6C117.115 8.32267 117.686 8.184 118.283 8.184C119.201 8.184 119.937 8.488 120.491 9.096C121.046 9.69333 121.323 10.52 121.323 11.576C121.323 12.28 121.169 12.9093 120.859 13.464C120.55 14.008 120.113 14.4347 119.547 14.744C118.993 15.0427 118.347 15.192 117.611 15.192C116.961 15.192 116.379 15.08 115.867 14.856C115.355 14.6213 114.881 14.28 114.443 13.832L115.307 12.984C115.649 13.3253 116.001 13.5813 116.363 13.752C116.726 13.912 117.137 13.992 117.595 13.992C118.278 13.992 118.811 13.7787 119.195 13.352C119.59 12.9253 119.787 12.3227 119.787 11.544C119.787 10.7653 119.611 10.2 119.259 9.848C118.907 9.496 118.433 9.32 117.835 9.32C117.558 9.32 117.302 9.352 117.067 9.416C116.833 9.46933 116.582 9.56 116.315 9.688H115.163V4.296H120.955L120.747 5.448ZM123.003 10.616V9.368H127.531V10.616H123.003ZM134.336 9.256C135.84 9.864 136.592 10.824 136.592 12.136C136.592 12.7227 136.432 13.2507 136.112 13.72C135.803 14.1787 135.365 14.5413 134.8 14.808C134.235 15.064 133.595 15.192 132.88 15.192C132.155 15.192 131.515 15.064 130.96 14.808C130.405 14.552 129.973 14.1947 129.664 13.736C129.365 13.2773 129.216 12.7547 129.216 12.168C129.216 11.5067 129.392 10.952 129.744 10.504C130.107 10.056 130.635 9.68267 131.328 9.384C130.763 9.096 130.341 8.74933 130.064 8.344C129.797 7.928 129.664 7.44267 129.664 6.888C129.664 6.312 129.813 5.816 130.112 5.4C130.421 4.984 130.821 4.66933 131.312 4.456C131.813 4.24267 132.347 4.136 132.912 4.136C133.467 4.136 133.989 4.23733 134.48 4.44C134.981 4.64267 135.387 4.952 135.696 5.368C136.005 5.77333 136.16 6.264 136.16 6.84C136.16 7.37333 136.011 7.832 135.712 8.216C135.413 8.6 134.955 8.94667 134.336 9.256ZM132.912 5.24C132.357 5.24 131.915 5.384 131.584 5.672C131.264 5.96 131.104 6.37067 131.104 6.904C131.104 7.416 131.259 7.80533 131.568 8.072C131.888 8.33867 132.395 8.584 133.088 8.808L133.36 8.904C133.84 8.62667 134.187 8.33333 134.4 8.024C134.613 7.71467 134.72 7.336 134.72 6.888C134.72 6.38667 134.56 5.98667 134.24 5.688C133.931 5.38933 133.488 5.24 132.912 5.24ZM132.896 14.024C133.557 14.024 134.08 13.8533 134.464 13.512C134.859 13.1707 135.056 12.7173 135.056 12.152C135.056 11.768 134.981 11.448 134.832 11.192C134.683 10.9253 134.443 10.696 134.112 10.504C133.781 10.3013 133.317 10.0987 132.72 9.896L132.32 9.752C131.787 10.008 131.392 10.3333 131.136 10.728C130.88 11.112 130.752 11.592 130.752 12.168C130.752 12.7547 130.944 13.2133 131.328 13.544C131.712 13.864 132.235 14.024 132.896 14.024ZM144.029 5.448H139.853V8.6C140.397 8.32267 140.967 8.184 141.565 8.184C142.482 8.184 143.218 8.488 143.773 9.096C144.327 9.69333 144.605 10.52 144.605 11.576C144.605 12.28 144.45 12.9093 144.141 13.464C143.831 14.008 143.394 14.4347 142.829 14.744C142.274 15.0427 141.629 15.192 140.893 15.192C140.242 15.192 139.661 15.08 139.149 14.856C138.637 14.6213 138.162 14.28 137.725 13.832L138.589 12.984C138.93 13.3253 139.282 13.5813 139.645 13.752C140.007 13.912 140.418 13.992 140.877 13.992C141.559 13.992 142.093 13.7787 142.477 13.352C142.871 12.9253 143.069 12.3227 143.069 11.544C143.069 10.7653 142.893 10.2 142.541 9.848C142.189 9.496 141.714 9.32 141.117 9.32C140.839 9.32 140.583 9.352 140.349 9.416C140.114 9.46933 139.863 9.56 139.597 9.688H138.445V4.296H144.237L144.029 5.448Z" fill="white"/>
</svg>
