<svg width="60" height="60" viewBox="0 0 60 60" fill="none" xmlns="http://www.w3.org/2000/svg">
<rect width="60" height="60" rx="5" fill="#FBD029"/>
<path d="M35.9999 22.4799C34.4086 20.8886 32.2504 19.9946 29.9999 19.9946C27.7495 19.9946 25.5912 20.8886 23.9999 22.4799C22.4086 24.0712 21.5146 26.2295 21.5146 28.4799C21.5146 30.7303 22.4086 32.8886 23.9999 34.4799L29.2699 39.7599C29.3629 39.8536 29.4735 39.928 29.5954 39.9788C29.7172 40.0296 29.8479 40.0557 29.9799 40.0557C30.1119 40.0557 30.2426 40.0296 30.3645 39.9788C30.4864 39.928 30.597 39.8536 30.6899 39.7599L35.9999 34.4299C37.5846 32.8452 38.4748 30.696 38.4748 28.4549C38.4748 26.2139 37.5846 24.0646 35.9999 22.4799ZM34.5699 32.9999L29.9999 37.5899L25.4299 32.9999C24.5271 32.0962 23.9124 30.9452 23.6636 29.6922C23.4148 28.4392 23.5431 27.1407 24.0322 25.9606C24.5213 24.7805 25.3493 23.772 26.4116 23.0624C27.4738 22.3528 28.7225 21.9741 29.9999 21.9741C31.2773 21.9741 32.5261 22.3528 33.5883 23.0624C34.6505 23.772 35.4785 24.7805 35.9676 25.9606C36.4567 27.1407 36.585 28.4392 36.3362 29.6922C36.0875 30.9452 35.4728 32.0962 34.5699 32.9999ZM26.9999 25.4099C26.1926 26.2197 25.7393 27.3165 25.7393 28.4599C25.7393 29.6033 26.1926 30.7001 26.9999 31.5099C27.5997 32.1107 28.3635 32.521 29.1956 32.6893C30.0276 32.8576 30.8909 32.7765 31.677 32.4561C32.4631 32.1356 33.1371 31.5902 33.6144 30.8882C34.0917 30.1861 34.3511 29.3588 34.3599 28.5099C34.3644 27.9431 34.2553 27.3812 34.0388 26.8573C33.8224 26.3334 33.5032 25.8583 33.0999 25.4599C32.7036 25.0545 32.231 24.7314 31.7094 24.5094C31.1877 24.2873 30.6273 24.1706 30.0603 24.1659C29.4934 24.1613 28.9311 24.2688 28.4059 24.4823C27.8807 24.6958 27.4029 25.011 26.9999 25.4099ZM31.6899 30.0899C31.311 30.4747 30.8101 30.7158 30.2731 30.7722C29.736 30.8285 29.196 30.6966 28.7454 30.3988C28.2949 30.1011 27.9617 29.6562 27.8029 29.14C27.6441 28.6238 27.6696 28.0685 27.8749 27.5691C28.0802 27.0696 28.4526 26.6569 28.9285 26.4016C29.4044 26.1464 29.9542 26.0643 30.4839 26.1695C31.0135 26.2747 31.4902 26.5607 31.8324 26.9784C32.1746 27.3962 32.3611 27.9199 32.3599 28.4599C32.3454 29.0772 32.0864 29.6634 31.6399 30.0899H31.6899Z" fill="#1F1D14"/>
</svg>
